PathFileType	4	(X/Y/Z)	C:\Users\Biomechanik\SynologyDrive\AlexP\Athlete_03\Athlete_3_25_03_31\Walking_04\marker_experimental.trc
DataRate	CameraRate	NumFrames	NumMarkers	Units	OrigDataRate	OrigDataStartFrame	OrigNumFrames
200.000000	200.000000	4	53	mm	200.000000	289	463
Frame#	Time	GLAB			RFHD			LFHD			C7			T6			SPINMOL			SPINM2			SPINM3			T12			BELTOL			BELT2			BELT3			SACROL			SACR2			SACR3			LTHOL			LTH2			LTH3			LSHAOL			LSHA2			LSHA3			LHEE			LTOE			LM5			RTH2			RSHAOL			RSHA2			RSHA3			RHEE			RTOE			RM5			STRN			XIPH			LACR			LUAOL			LUA2			LUA3			LLAOL			LLA2			LLA3			LWRR			LWRU			RACR			RUAOL			RUA2			RUA3			RLAOL			RLA2			RLA3			RWRR			RWRU			RTH3			RTHOL			
		X1	Y1	Z1	X2	Y2	Z2	X3	Y3	Z3	X4	Y4	Z4	X5	Y5	Z5	X6	Y6	Z6	X7	Y7	Z7	X8	Y8	Z8	X9	Y9	Z9	X10	Y10	Z10	X11	Y11	Z11	X12	Y12	Z12	X13	Y13	Z13	X14	Y14	Z14	X15	Y15	Z15	X16	Y16	Z16	X17	Y17	Z17	X18	Y18	Z18	X19	Y19	Z19	X20	Y20	Z20	X21	Y21	Z21	X22	Y22	Z22	X23	Y23	Z23	X24	Y24	Z24	X25	Y25	Z25	X26	Y26	Z26	X27	Y27	Z27	X28	Y28	Z28	X29	Y29	Z29	X30	Y30	Z30	X31	Y31	Z31	X32	Y32	Z32	X33	Y33	Z33	X34	Y34	Z34	X35	Y35	Z35	X36	Y36	Z36	X37	Y37	Z37	X38	Y38	Z38	X39	Y39	Z39	X40	Y40	Z40	X41	Y41	Z41	X42	Y42	Z42	X43	Y43	Z43	X44	Y44	Z44	X45	Y45	Z45	X46	Y46	Z46	X47	Y47	Z47	X48	Y48	Z48	X49	Y49	Z49	X50	Y50	Z50	X51	Y51	Z51	X52	Y52	Z52	X53	Y53	Z53	

290	1.445	1192.598876953125	1608.36279296875	287.4193115234377	1142.950317382812	1633.611083984375	353.1251220703127	1148.676025390625	1631.92041015625	214.6320800781252	968.6984252929686	1447.228881835938	280.3911743164064	911.9677124023436	1277.14404296875	276.7691650390627	905.1779785156249	1237.046508789062	255.4641418457033	900.1134033203124	1229.382690429688	305.4959411621095	911.5718994140624	1172.653930664062	271.1130371093752	935.3102416992186	1106.97021484375	272.484100341797	900.0150146484374	1072.834716796875	256.2534790039064	899.3303833007811	1071.107055664062	306.7379760742189	895.9288330078124	1010.849731445312	277.8635559082033	915.3407592773436	961.3572998046875	247.7259521484377	913.4329223632811	958.330078125	299.2415161132814	900.4879760742188	900.394775390625	269.6779174804689	1106.488037109375	686.0698852539064	66.11099243164082	1081.953247070312	613.1440429687501	85.40681457519551	1128.094116210938	629.7733764648439	74.36335754394553	1109.927001953125	388.5538024902344	74.13286590576192	1040.446411132812	354.7504272460938	93.90633392334003	1086.005004882812	333.1423950195313	88.89418792724629	945.3388061523438	198.2214508056641	199.2045288085939	1125.362548828125	72.73062896728523	194.9962310791018	1070.099975585938	67.2191467285157	103.1797866821291	1034.24658203125	638.4008178710939	453.4151916503908	943.6248168945311	343.2580261230469	420.6921691894533	974.9713134765624	271.1347961425782	417.9583129882814	929.2114257812499	284.6091308593751	404.2041015625002	894.9661865234375	69.62931823730474	292.6287841796877	1108.404541015625	51.83788299560554	286.3275146484377	1062.174560546875	37.46727752685553	390.0992736816408	1140.302490234375	1349.897583007812	275.9117431640627	1155.541625976562	1205.424926757812	275.698181152344	1040.880493164062	1412.536865234375	103.9414520263674	1022.472045898437	1260.525268554688	-0.1890835314987212	1004.830627441406	1199.807373046875	-20.15371704101544	1053.109375	1202.140014648438	-2.407210588455007	1030.5849609375	1000.674926757813	-59.35243225097637	992.9689941406249	932.8637695312501	-42.97023773193341	1037.264038085938	939.7439575195314	-64.53085327148419	1059.391479492188	838.6623535156251	-76.42396545410136	1107.269287109375	835.3481445312501	-13.3691873550413	1057.463623046875	1405.53369140625	446.9383544921877	1057.506713867188	1258.19384765625	550.1130981445315	1088.664428710938	1199.97265625	554.3665771484377	1040.786254882812	1199.018310546875	573.7817382812502	1122.242919921875	986.8241577148439	596.7244262695315	1194.646484375	955.2263183593751	609.1561279296877	1153.280395507812	932.7808837890626	592.5723266601565	1218.232299804688	868.8788452148439	590.822692871094	1250.249877929688	873.1060791015626	516.0601806640627	987.0261840820311	637.1259765625001	437.190643310547	980.4284057617186	696.9667968750001	448.7576904296877	
291	1.45	1198.8310546875	1608.100341796875	287.0506286621096	1149.210571289062	1633.438354492188	352.6921997070315	1154.878051757812	1631.575561523438	214.2220764160158	975.0046386718749	1446.95703125	280.2688598632814	918.1318359374999	1276.957153320312	276.684295654297	911.2942504882811	1236.880004882812	255.3546142578127	906.2192993164061	1229.1923828125	305.4165649414064	917.6932373046874	1172.4140625	270.951141357422	941.3201293945311	1106.7548828125	272.3467712402345	906.0708007812499	1072.680541992188	255.6708984375002	905.2160644531249	1070.690063476562	306.0587463378908	901.8254394531249	1010.690063476562	277.1699523925783	921.2451171874999	961.2208251953125	247.1363525390627	919.1884155273436	958.1923217773438	298.5979309082033	906.4197387695312	900.2700805664062	269.2016601562502	1114.284790039062	686.2545166015626	65.72022247314473	1090.325317382812	613.3533325195314	84.35590362548848	1136.4599609375	630.2521362304689	74.74095916748068	1121.484497070312	386.3423767089844	75.19908142089864	1053.035766601562	350.4731750488282	94.96846771240254	1099.05859375	329.9421691894532	89.97884368896504	962.3729248046875	190.2809143066407	198.7286071777345	1146.558471679688	71.31237030029304	195.156448364258	1091.73828125	63.75788879394538	103.4481811523439	1037.653930664062	638.2119140625001	453.5814514160158	945.1717529296874	343.6552429199219	420.645477294922	976.1659545898436	271.3871459960938	417.8559570312502	930.3445434570311	285.2116394042969	404.1835021972658	895.505859375	70.15946197509771	292.5809936523439	1108.389038085938	51.90097808837898	286.4380798339846	1062.217651367188	37.40589523315436	390.1360473632814	1146.592407226562	1349.500854492188	275.8710021972659	1161.674438476562	1205.07861328125	275.856872558594	1047.050170898438	1411.929931640625	103.8328552246096	1027.626342773438	1259.92236328125	-0.2491995245216389	1009.688171386719	1199.259765625	-20.07528305053692	1058.113525390625	1201.419067382812	-2.562921524047657	1033.967407226562	1000.331787109375	-59.19284439086895	995.9273681640624	932.6188964843751	-42.83193969726544	1040.346557617188	939.2582397460939	-64.46140289306622	1061.429931640625	837.9268798828126	-76.72547149658183	1109.599243164062	834.1883544921876	-13.99555778503398	1063.873046875	1405.311767578125	446.7687988281252	1064.211181640625	1258.455932617188	550.2991333007815	1095.586547851562	1200.610229492188	554.6608886718752	1047.809936523438	1199.215209960938	574.1011352539065	1131.178955078125	987.3763427734376	597.0224609375002	1204.143310546875	956.8594360351564	608.8328247070315	1163.01416015625	933.9162597656251	592.4821777343752	1228.624145507812	870.9113159179689	590.0319824218752	1260.605590820312	876.0063476562501	515.3522949218752	990.4157714843749	637.2723388671876	437.2378540039064	984.2030029296874	697.1204223632814	448.8021850585939	
292	1.455	1205.10888671875	1607.861938476562	286.6666564941409	1155.4296875	1633.21875	352.3113403320315	1161.111206054688	1631.161254882812	213.7820587158205	981.3485717773436	1446.629516601562	280.1199951171877	924.1900024414061	1276.78955078125	276.5567626953127	917.4639282226561	1236.663818359375	255.2219085693361	912.3259887695311	1229.228881835938	305.3607177734377	923.7917480468749	1172.227783203125	270.843475341797	947.3652954101561	1106.486938476562	272.1036987304689	911.6672973632811	1072.6376953125	254.9700469970705	911.1710205078124	1070.6572265625	305.5227661132814	907.7800292968749	1010.416809082031	276.4952087402345	927.1467895507811	960.9838256835938	246.5767211914064	924.8036499023436	958.170166015625	297.9690246582033	912.337158203125	900.0740966796875	268.7649536132814	1122.505859375	686.9542846679689	66.95111846923849	1098.652465820312	613.0215454101564	84.27581024169942	1144.853515625	630.5146484375001	75.17569732666037	1132.923095703125	384.0882873535157	76.28550720214865	1065.598754882812	346.2158508300782	96.08616638183614	1112.179321289062	327.2296142578126	90.28427886962911	979.54345703125	182.2938232421876	198.362274169922	1167.817749023438	70.0070877075196	195.2412414550784	1113.389282226562	60.54917526245124	103.4944305419924	1041.099975585938	638.1384887695314	453.7114257812502	946.7980957031249	344.0099487304688	420.5284423828127	977.1861572265624	271.2778015136719	417.7134399414064	931.5772705078124	285.3912658691407	403.9968566894533	895.7726440429688	70.61038208007818	292.3618469238283	1109.101928710938	51.66425704956062	286.4409790039065	1062.5439453125	37.47233200073249	390.1573181152345	1152.866943359375	1349.102416992188	275.7619323730471	1167.895263671875	1204.621337890625	276.0329589843752	1053.207885742188	1411.393920898438	103.6846237182619	1032.779541015625	1259.286743164062	-0.3073927462099085	1014.811340332031	1198.864990234375	-20.59797096252423	1062.954345703125	1200.573120117188	-2.503933191299243	1037.428466796875	999.5589599609376	-59.10065841674786	999.0014038085936	932.3970947265626	-42.71260070800763	1043.104858398438	938.6488647460939	-64.45504760742169	1063.402465820312	837.1801147460939	-77.00738525390605	1111.961791992188	833.0153808593751	-14.58283901214579	1070.162719726562	1405.230224609375	446.6578979492189	1070.960815429688	1258.505493164062	550.4963378906252	1102.712646484375	1200.478759765625	555.0212402343752	1054.76318359375	1199.255126953125	574.4362792968752	1140.215454101562	988.0575561523439	597.218688964844	1213.538208007812	958.5439453125001	608.4733886718752	1172.71142578125	935.0692749023439	592.3327636718752	1239.128173828125	872.9183959960939	589.267517089844	1271.09375	878.9468994140626	514.529479980469	993.9151611328124	637.3915405273439	437.2115478515627	988.0639648437499	697.2579345703126	448.9021301269533	
293	1.46	1211.360961914062	1607.509399414062	286.2624816894534	1161.68017578125	1632.91650390625	351.9207763671877	1167.292724609375	1630.684326171875	213.4166412353518	987.7174072265624	1446.213256835938	279.9407043457033	930.4520874023436	1276.479858398438	276.4316711425783	923.5894775390624	1236.397216796875	255.0498962402345	918.4766235351561	1228.93017578125	305.1340637207033	929.9229125976561	1171.90576171875	270.6667480468752	953.3065795898436	1106.142700195312	271.8526000976564	917.5254516601561	1072.604858398438	254.3635711669924	917.1616821289061	1070.428100585938	304.8030090332033	913.6641235351561	1010.338073730469	275.8531799316408	933.0312499999999	960.7747802734376	245.9261627197267	930.5014038085936	958.0934448242189	297.4141540527345	918.203369140625	899.9238891601562	268.2969360351564	1129.3603515625	686.8643188476564	68.46977996826193	1106.814575195312	612.8297729492189	84.13393402099629	1153.01171875	630.7042846679689	75.7650604248049	1144.145629882812	381.7802124023438	77.21821594238303	1078.047485351562	341.8424682617188	97.06063842773457	1125.053466796875	323.8969421386719	91.28394317626974	996.9195556640625	174.3475189208985	197.9542388916017	1189.057006835938	68.89747619628913	195.2051391601565	1135.27099609375	57.38742065429695	103.1645660400393	1044.616577148438	637.8354492187501	453.8247985839845	948.4721069335936	344.6247253417969	420.4844970703127	978.4223022460936	271.6420288085938	417.761688232422	932.9268798828124	285.9987182617188	403.9116516113283	896.0077514648438	71.02622222900396	292.0986633300783	1108.132202148438	51.74269866943366	286.1296691894534	1061.752197265625	37.69258880615241	390.1505126953127	1159.214599609375	1348.572998046875	275.6374511718752	1174.087280273438	1204.10400390625	276.2181091308596	1059.46337890625	1410.7490234375	103.4193344116213	1038.036254882812	1258.646850585938	-0.4371587038038254	1019.44189453125	1198.003784179688	-19.85071754455548	1068.17041015625	1199.917724609375	-3.096918582916063	1041.08642578125	999.0997314453126	-59.16421127319317	1002.176574707031	932.0858154296876	-42.54516983032208	1046.17138671875	937.9997558593751	-64.52304077148418	1065.553588867188	836.3652343750001	-77.23468017578105	1114.39697265625	831.7045288085939	-15.13723945617655	1076.453247070312	1405.0498046875	446.4925842285158	1077.873291015625	1258.860595703125	550.4702758789065	1109.687255859375	1200.622436523438	555.264831542969	1061.767944335938	1199.39697265625	574.6458740234377	1149.062133789062	988.5903930664064	597.396667480469	1222.995239257812	960.2927246093751	608.0930175781252	1182.40625	936.2523803710939	592.1321411132815	1249.529541015625	874.8796386718751	588.516052246094	1281.143432617188	881.7283935546876	513.838073730469	997.3749999999999	637.3120117187501	437.5025024414064	991.9306030273436	697.3962402343751	448.921844482422	
